# Blender v2.74 (sub 0) OBJ File: 'saturn_peak.blend'
# www.blender.org
mtllib saturn_peak_top.mtl
o Cube_Cube.002
v -0.500000 -0.500000 -0.500000
v 0.500000 -0.500000 -0.500000
v 0.500000 -0.500000 0.500000
v -0.500000 -0.500000 0.500000
v 0.000000 0.500000 0.500000
vt 1.000000 1.000000
vt 0.000000 1.000000
vt 0.000000 0.000000
vt 1.000000 0.000000
vt 0.500000 1.000000
vt 0.500000 0.000000
vn 0.000000 -1.000000 -0.000000
vn 0.894400 0.447200 -0.000000
vn 0.000000 -0.000000 1.000000
vn -0.894400 0.447200 0.000000
vn -0.000000 0.707100 -0.707100
usemtl None
s off
f 1/1/1 2/2/1 3/3/1 4/4/1
f 2/1/2 5/3/2 3/4/2
f 4/3/3 3/4/3 5/5/3
f 1/2/4 4/3/4 5/4/4
f 2/1/5 1/2/5 5/6/5
